# xmcd
#
# Track frame offsets: 
#        150
#        27511
#        50386
#        73186
#        86303
#        104285
#        122989
#        141487
#        157249
#        173537
#        187567
#        205140
#        222541
#        236841
#        257992
#        278812
#        299206
#        318886
#
# Disc length: 4575 seconds
#
# Revision: 0
# Processed by: cddbd v1.5.2PL0 Copyright (c) Steve Scherf et al.
# Submitted via: ExactAudioCopy v0.99pb3
#
DISCID=1b11dd12
DTITLE=Angry Johnny and the Killbillies - I Hear the Devil Laughing [C
DTITLE=D]
DYEAR=2014
DGENRE=Bloodgrass
TTITLE0=Devil Outside the Door
TTITLE1=Long Long Lonely Ride
TTITLE2=A Thousand Years
TTITLE3=Birthday
TTITLE4=Charlie
TTITLE5=Adventureland
TTITLE6=Gonna Run
TTITLE7=Just Plain Bad
TTITLE8=One Last Look
TTITLE9=I've Tried
TTITLE10=President's Day
TTITLE11=The Pequot Dance Hall
TTITLE12=Boneyard
TTITLE13=Good and Evil
TTITLE14=To Hold You Again
TTITLE15=Ghost
TTITLE16=Long Long Scratchy Ride
TTITLE17=God Damn This Tornado
EXTD=
EXTT0=
EXTT1=
EXTT2=
EXTT3=
EXTT4=
EXTT5=
EXTT6=
EXTT7=
EXTT8=
EXTT9=
EXTT10=
EXTT11=
EXTT12=
EXTT13=
EXTT14=
EXTT15=
EXTT16=
EXTT17=
PLAYORDER=
